<svg xmlns="http://www.w3.org/2000/svg" viewBox="0 0 512 512" shape-rendering="crispEdges"><rect width="512" height="512" rx="96" fill="#1a1c2c"/><rect x="144" y="32" width="28" height="28" fill="#4a3016"/><rect x="172" y="32" width="28" height="28" fill="#4a3016"/><rect x="200" y="32" width="28" height="28" fill="#4a3016"/><rect x="228" y="32" width="28" height="28" fill="#4a3016"/><rect x="256" y="32" width="28" height="28" fill="#4a3016"/><rect x="284" y="32" width="28" height="28" fill="#4a3016"/><rect x="116" y="60" width="28" height="28" fill="#4a3016"/><rect x="144" y="60" width="28" height="28" fill="#6b471f"/><rect x="172" y="60" width="28" height="28" fill="#4a3016"/><rect x="200" y="60" width="28" height="28" fill="#4a3016"/><rect x="228" y="60" width="28" height="28" fill="#4a3016"/><rect x="256" y="60" width="28" height="28" fill="#4a3016"/><rect x="284" y="60" width="28" height="28" fill="#6b471f"/><rect x="312" y="60" width="28" height="28" fill="#4a3016"/><rect x="88" y="88" width="28" height="28" fill="#4a3016"/><rect x="116" y="88" width="28" height="28" fill="#4a3016"/><rect x="144" y="88" width="28" height="28" fill="#4a3016"/><rect x="172" y="88" width="28" height="28" fill="#4a3016"/><rect x="200" y="88" width="28" height="28" fill="#4a3016"/><rect x="228" y="88" width="28" height="28" fill="#4a3016"/><rect x="256" y="88" width="28" height="28" fill="#4a3016"/><rect x="284" y="88" width="28" height="28" fill="#4a3016"/><rect x="312" y="88" width="28" height="28" fill="#4a3016"/><rect x="340" y="88" width="28" height="28" fill="#4a3016"/><rect x="88" y="116" width="28" height="28" fill="#4a3016"/><rect x="116" y="116" width="28" height="28" fill="#4a3016"/><rect x="144" y="116" width="28" height="28" fill="#f1c79b"/><rect x="172" y="116" width="28" height="28" fill="#f1c79b"/><rect x="200" y="116" width="28" height="28" fill="#f1c79b"/><rect x="228" y="116" width="28" height="28" fill="#f1c79b"/><rect x="256" y="116" width="28" height="28" fill="#f1c79b"/><rect x="284" y="116" width="28" height="28" fill="#f1c79b"/><rect x="312" y="116" width="28" height="28" fill="#4a3016"/><rect x="88" y="144" width="28" height="28" fill="#4a3016"/><rect x="116" y="144" width="28" height="28" fill="#f1c79b"/><rect x="144" y="144" width="28" height="28" fill="#f1c79b"/><rect x="172" y="144" width="28" height="28" fill="#f1c79b"/><rect x="200" y="144" width="28" height="28" fill="#f1c79b"/><rect x="228" y="144" width="28" height="28" fill="#f1c79b"/><rect x="256" y="144" width="28" height="28" fill="#f1c79b"/><rect x="284" y="144" width="28" height="28" fill="#f1c79b"/><rect x="312" y="144" width="28" height="28" fill="#f1c79b"/><rect x="340" y="144" width="28" height="28" fill="#f1c79b"/><rect x="88" y="172" width="28" height="28" fill="#4a3016"/><rect x="116" y="172" width="28" height="28" fill="#f1c79b"/><rect x="144" y="172" width="28" height="28" fill="#15121a"/><rect x="172" y="172" width="28" height="28" fill="#d89c6a"/><rect x="200" y="172" width="28" height="28" fill="#f1c79b"/><rect x="228" y="172" width="28" height="28" fill="#f1c79b"/><rect x="256" y="172" width="28" height="28" fill="#f1c79b"/><rect x="284" y="172" width="28" height="28" fill="#15121a"/><rect x="312" y="172" width="28" height="28" fill="#d89c6a"/><rect x="340" y="172" width="28" height="28" fill="#f1c79b"/><rect x="88" y="200" width="28" height="28" fill="#f1c79b"/><rect x="116" y="200" width="28" height="28" fill="#f1c79b"/><rect x="144" y="200" width="28" height="28" fill="#f1c79b"/><rect x="172" y="200" width="28" height="28" fill="#f1c79b"/><rect x="200" y="200" width="28" height="28" fill="#f1c79b"/><rect x="228" y="200" width="28" height="28" fill="#f1c79b"/><rect x="256" y="200" width="28" height="28" fill="#f1c79b"/><rect x="284" y="200" width="28" height="28" fill="#f1c79b"/><rect x="312" y="200" width="28" height="28" fill="#f1c79b"/><rect x="340" y="200" width="28" height="28" fill="#f1c79b"/><rect x="116" y="228" width="28" height="28" fill="#f1c79b"/><rect x="144" y="228" width="28" height="28" fill="#f1c79b"/><rect x="172" y="228" width="28" height="28" fill="#f1c79b"/><rect x="200" y="228" width="28" height="28" fill="#d89c6a"/><rect x="228" y="228" width="28" height="28" fill="#d89c6a"/><rect x="256" y="228" width="28" height="28" fill="#f1c79b"/><rect x="284" y="228" width="28" height="28" fill="#f1c79b"/><rect x="312" y="228" width="28" height="28" fill="#f1c79b"/><rect x="144" y="256" width="28" height="28" fill="#f4f4f4"/><rect x="172" y="256" width="28" height="28" fill="#f4f4f4"/><rect x="200" y="256" width="28" height="28" fill="#f4f4f4"/><rect x="228" y="256" width="28" height="28" fill="#f4f4f4"/><rect x="256" y="256" width="28" height="28" fill="#f4f4f4"/><rect x="284" y="256" width="28" height="28" fill="#f4f4f4"/><rect x="88" y="284" width="28" height="28" fill="#2f3a8c"/><rect x="116" y="284" width="28" height="28" fill="#2f3a8c"/><rect x="144" y="284" width="28" height="28" fill="#2f3a8c"/><rect x="172" y="284" width="28" height="28" fill="#f4f4f4"/><rect x="200" y="284" width="28" height="28" fill="#b13e53"/><rect x="228" y="284" width="28" height="28" fill="#b13e53"/><rect x="256" y="284" width="28" height="28" fill="#f4f4f4"/><rect x="284" y="284" width="28" height="28" fill="#2f3a8c"/><rect x="312" y="284" width="28" height="28" fill="#2f3a8c"/><rect x="340" y="284" width="28" height="28" fill="#2f3a8c"/><rect x="88" y="312" width="28" height="28" fill="#2f3a8c"/><rect x="116" y="312" width="28" height="28" fill="#2f3a8c"/><rect x="144" y="312" width="28" height="28" fill="#2f3a8c"/><rect x="172" y="312" width="28" height="28" fill="#2f3a8c"/><rect x="200" y="312" width="28" height="28" fill="#b13e53"/><rect x="228" y="312" width="28" height="28" fill="#b13e53"/><rect x="256" y="312" width="28" height="28" fill="#2f3a8c"/><rect x="284" y="312" width="28" height="28" fill="#2f3a8c"/><rect x="312" y="312" width="28" height="28" fill="#2f3a8c"/><rect x="340" y="312" width="28" height="28" fill="#2f3a8c"/><rect x="88" y="340" width="28" height="28" fill="#2f3a8c"/><rect x="116" y="340" width="28" height="28" fill="#2f3a8c"/><rect x="144" y="340" width="28" height="28" fill="#3b5dc9"/><rect x="172" y="340" width="28" height="28" fill="#2f3a8c"/><rect x="200" y="340" width="28" height="28" fill="#b13e53"/><rect x="228" y="340" width="28" height="28" fill="#b13e53"/><rect x="256" y="340" width="28" height="28" fill="#2f3a8c"/><rect x="284" y="340" width="28" height="28" fill="#3b5dc9"/><rect x="312" y="340" width="28" height="28" fill="#2f3a8c"/><rect x="340" y="340" width="28" height="28" fill="#2f3a8c"/><rect x="368" y="340" width="28" height="28" fill="#ffd34d"/><rect x="88" y="368" width="28" height="28" fill="#2f3a8c"/><rect x="116" y="368" width="28" height="28" fill="#2f3a8c"/><rect x="144" y="368" width="28" height="28" fill="#2f3a8c"/><rect x="172" y="368" width="28" height="28" fill="#2f3a8c"/><rect x="200" y="368" width="28" height="28" fill="#2f3a8c"/><rect x="228" y="368" width="28" height="28" fill="#2f3a8c"/><rect x="256" y="368" width="28" height="28" fill="#2f3a8c"/><rect x="284" y="368" width="28" height="28" fill="#2f3a8c"/><rect x="312" y="368" width="28" height="28" fill="#2f3a8c"/><rect x="340" y="368" width="28" height="28" fill="#2f3a8c"/><rect x="88" y="396" width="28" height="28" fill="#2f3a8c"/><rect x="116" y="396" width="28" height="28" fill="#2f3a8c"/><rect x="144" y="396" width="28" height="28" fill="#2f3a8c"/><rect x="172" y="396" width="28" height="28" fill="#2f3a8c"/><rect x="200" y="396" width="28" height="28" fill="#2f3a8c"/><rect x="228" y="396" width="28" height="28" fill="#2f3a8c"/><rect x="256" y="396" width="28" height="28" fill="#2f3a8c"/><rect x="284" y="396" width="28" height="28" fill="#2f3a8c"/><rect x="312" y="396" width="28" height="28" fill="#2f3a8c"/><rect x="340" y="396" width="28" height="28" fill="#2f3a8c"/><rect x="88" y="424" width="28" height="28" fill="#2f3a8c"/><rect x="116" y="424" width="28" height="28" fill="#2f3a8c"/><rect x="144" y="424" width="28" height="28" fill="#2f3a8c"/><rect x="284" y="424" width="28" height="28" fill="#2f3a8c"/><rect x="312" y="424" width="28" height="28" fill="#2f3a8c"/><rect x="340" y="424" width="28" height="28" fill="#2f3a8c"/><rect x="88" y="452" width="28" height="28" fill="#2f3a8c"/><rect x="116" y="452" width="28" height="28" fill="#2f3a8c"/><rect x="312" y="452" width="28" height="28" fill="#2f3a8c"/><rect x="340" y="452" width="28" height="28" fill="#2f3a8c"/></svg>